<svg xmlns="http://www.w3.org/2000/svg" viewBox="0 0 64 64">
  <rect width="64" height="64" fill="#1c1b1c"/>
  <path d="M9.0 40.51343283582089V23.486567164179103H13.256716417910447V25.340298507462684H13.874626865671642Q14.32089552238806 24.482089552238804 15.350746268656716 23.84701492537313Q16.38059701492537 23.21194029850746 18.062686567164178 23.21194029850746Q19.882089552238806 23.21194029850746 20.980597014925372 23.915671641791043Q22.079104477611942 24.619402985074622 22.66268656716418 25.752238805970144H23.280597014925373Q23.86417910447761 24.65373134328358 24.928358208955224 23.93283582089552Q25.992537313432837 23.21194029850746 27.949253731343283 23.21194029850746Q29.528358208955225 23.21194029850746 30.815671641791045 23.881343283582087Q32.102985074626865 24.550746268656713 32.875373134328356 25.906716417910445Q33.647761194029854 27.262686567164177 33.647761194029854 29.32238805970149V40.51343283582089H29.322388059701492V29.631343283582087Q29.322388059701492 28.223880597014922 28.601492537313433 27.52014925373134Q27.880597014925375 26.81641791044776 26.576119402985075 26.81641791044776Q25.1 26.81641791044776 24.29328358208955 27.76044776119403Q23.486567164179103 28.7044776119403 23.486567164179103 30.45522388059701V40.51343283582089H19.161194029850748V29.631343283582087Q19.161194029850748 28.223880597014922 18.440298507462686 27.52014925373134Q17.719402985074627 26.81641791044776 16.41492537313433 26.81641791044776Q14.938805970149254 26.81641791044776 14.132089552238806 27.76044776119403Q13.325373134328359 28.7044776119403 13.325373134328359 30.45522388059701V40.51343283582089ZM43.60298507462687 40.994029850746266Q41.78358208955224 40.994029850746266 40.34179104477612 40.3589552238806Q38.900000000000006 39.723880597014926 38.0589552238806 38.505223880597015Q37.2179104477612 37.286567164179104 37.2179104477612 35.535820895522384Q37.2179104477612 33.78507462686567 38.0589552238806 32.600746268656714Q38.900000000000006 31.41641791044776 40.39328358208955 30.81567164179104Q41.886567164179105 30.214925373134328 43.8089552238806 30.214925373134328H48.47761194029851V29.25373134328358Q48.47761194029851 28.05223880597015 47.722388059701494 27.279850746268657Q46.96716417910448 26.507462686567163 45.31940298507463 26.507462686567163Q43.70597014925374 26.507462686567163 42.91641791044776 27.245522388059698Q42.126865671641795 27.983582089552236 41.886567164179105 29.150746268656714L37.9044776119403 27.81194029850746Q38.31641791044777 26.507462686567163 39.22611940298508 25.426119402985073Q40.13582089552239 24.344776119402983 41.6634328358209 23.675373134328353Q43.191044776119405 23.005970149253727 45.38805970149254 23.005970149253727Q48.75223880597015 23.005970149253727 50.7089552238806 24.688059701492534Q52.66567164179105 26.37014925373134 52.66567164179105 29.562686567164178V35.91343283582089Q52.66567164179105 36.94328358208955 53.626865671641795 36.94328358208955H55.0V40.51343283582089H52.116417910447765Q50.84626865671642 40.51343283582089 50.0223880597015 39.8955223880597Q49.19850746268657 39.277611940298506 49.19850746268657 38.24776119402985V38.213432835820896H48.54626865671642Q48.4089552238806 38.625373134328356 47.928358208955224 39.29477611940298Q47.44776119402985 39.96417910447761 46.417910447761194 40.47910447761194Q45.38805970149254 40.994029850746266 43.60298507462687 40.994029850746266ZM44.35820895522389 37.492537313432834Q46.17761194029851 37.492537313432834 47.32761194029851 36.47985074626865Q48.47761194029851 35.46716417910447 48.47761194029851 33.78507462686567V33.44179104477612H44.1179104477612Q42.91641791044776 33.44179104477612 42.22985074626866 33.95671641791044Q41.54328358208956 34.471641791044775 41.54328358208956 35.39850746268657Q41.54328358208956 36.32537313432836 42.26417910447762 36.9089552238806Q42.985074626865675 37.492537313432834 44.35820895522389 37.492537313432834Z" fill="#00dce5"/>
</svg>
